<svg xmlns="http://www.w3.org/2000/svg" viewBox="0 0 512 512"><defs><linearGradient id="g" x1="0" y1="0" x2="1" y2="1"><stop stop-color="#d89cff"/><stop offset=".52" stop-color="#8d7cff"/><stop offset="1" stop-color="#68dfff"/></linearGradient></defs><rect width="512" height="512" rx="120" fill="#160831"/><circle cx="400" cy="105" r="110" fill="#8c42db" opacity=".45"/><path fill="url(#g)" d="M108 232h296v174c0 28-22 50-50 50H158c-28 0-50-22-50-50V232Zm50-130h196c28 0 50 22 50 50v42H108v-42c0-28 22-50 50-50Z"/><path stroke="#fff" stroke-width="24" stroke-linecap="round" d="M180 72v62m152-62v62"/><path fill="#fff" d="M256 275c14-23 54-14 54 17 0 32-54 64-54 64s-54-32-54-64c0-31 40-40 54-17Z"/></svg>